<svg xmlns="http://www.w3.org/2000/svg" xmlns:svg="http://www.w3.org/2000/svg" id="Layer_1" width="198" height="99" x="0" y="0" enable-background="new 0 0 198 99" version="1.1" viewBox="0 0 198 99" xml:space="preserve"><metadata id="metadata327"/><g id="g5" transform="translate(-0.12000084,0)"><circle id="circle7" cx="16.62" cy="16.609" r="12" style="fill:#fc0"/><polyline id="polyline9" stroke-miterlimit="10" points="21.453 12.745 15.788 20.571 11.775 16.658" style="fill:none;stroke:#655100;stroke-width:2.30489993;stroke-miterlimit:10"/></g><g id="g11" transform="translate(-0.12000084,0)"><circle id="circle13" cx="16.62" cy="49.465" r="12" style="fill:#fff"/><polyline id="polyline15" stroke-miterlimit="10" points="21.453 45.601 15.788 53.427 11.775 49.514" style="fill:none;stroke:#006468;stroke-width:2.30489993;stroke-miterlimit:10"/></g><g id="g17" transform="translate(-0.12000084,0)"><circle id="circle19" cx="16.62" cy="82.477" r="12" style="fill:#4db7bb"/><polyline id="polyline21" stroke-miterlimit="10" points="21.453 78.612 15.788 86.438 11.775 82.525" style="fill:none;stroke:#006468;stroke-width:2.30489993;stroke-miterlimit:10"/></g><g id="g23" transform="translate(-0.26100159,0)"><circle id="circle25" cx="49.761" cy="16.609" r="12" style="fill:#fc0"/><polygon id="polygon27" points="45.412 15.313 49.307 15.313 49.307 11.53 54.701 16.875 49.331 22.245 49.331 18.563 45.412 18.539" style="fill:#655100"/></g><g id="g29" transform="translate(-0.26100159,0)"><circle id="circle31" cx="49.761" cy="49.465" r="12" style="fill:#fff"/><polygon id="polygon33" points="45.412 48.169 49.307 48.169 49.307 44.386 54.701 49.731 49.331 55.101 49.331 51.419 45.412 51.394" style="fill:#006468"/></g><g id="g35" transform="translate(-0.26100159,0)"><circle id="circle37" cx="49.761" cy="82.477" r="12" style="fill:#4db7bb"/><polygon id="polygon39" points="45.412 81.18 49.307 81.18 49.307 77.397 54.701 82.743 49.331 88.113 49.331 84.43 45.412 84.406" style="fill:#006468"/></g><g id="g41" transform="translate(-0.54399872,0)"><rect id="rect43" width="21" height="21" x="105.544" y="6.109" style="fill:#fc0"/><polygon id="polygon45" points="114.44 19.083 114.44 15.116 110.586 15.116 116.032 9.621 121.502 15.091 117.751 15.091 117.726 19.083" style="fill:#655100"/><rect id="rect47" width="1" height="1" x="110.511" y="22.193" style="fill:#655100"/><rect id="rect49" width="1" height="1" x="112.518" y="22.193" style="fill:#655100"/><rect id="rect51" width="1" height="1" x="114.517" y="22.193" style="fill:#655100"/><rect id="rect53" width="1" height="1" x="116.525" y="22.193" style="fill:#655100"/><rect id="rect55" width="1" height="1" x="118.524" y="22.193" style="fill:#655100"/><rect id="rect57" width="1" height="1" x="120.531" y="22.193" style="fill:#655100"/></g><g id="g59" transform="translate(-0.68600464,0)"><rect id="rect61" width="21" height="21" x="138.686" y="6.109" style="fill:#fc0"/><polygon id="polygon63" points="150.79 9.621 150.79 13.588 154.644 13.588 149.198 19.083 143.728 13.612 147.479 13.613 147.504 9.621" style="fill:#655100"/><rect id="rect65" width="1" height="1" x="143.652" y="22.193" style="fill:#655100"/><rect id="rect67" width="1" height="1" x="145.66" y="22.193" style="fill:#655100"/><rect id="rect69" width="1" height="1" x="147.659" y="22.193" style="fill:#655100"/><rect id="rect71" width="1" height="1" x="149.666" y="22.193" style="fill:#655100"/><rect id="rect73" width="1" height="1" x="151.666" y="22.193" style="fill:#655100"/><rect id="rect75" width="1" height="1" x="153.673" y="22.193" style="fill:#655100"/></g><g id="g77" transform="translate(-0.54399872,0)"><rect id="rect79" width="21" height="21" x="105.544" y="38.965" style="fill:#fff"/><polygon id="polygon81" points="114.44 51.939 114.44 47.971 110.586 47.971 116.032 42.476 121.502 47.947 117.751 47.947 117.726 51.939" style="fill:#006468"/><rect id="rect83" width="1" height="1" x="110.511" y="55.049" style="fill:#006468"/><rect id="rect85" width="1" height="1" x="112.518" y="55.049" style="fill:#006468"/><rect id="rect87" width="1" height="1" x="114.517" y="55.049" style="fill:#006468"/><rect id="rect89" width="1" height="1" x="116.525" y="55.049" style="fill:#006468"/><rect id="rect91" width="1" height="1" x="118.524" y="55.049" style="fill:#006468"/><rect id="rect93" width="1" height="1" x="120.531" y="55.049" style="fill:#006468"/></g><g id="g95" transform="translate(-0.68600464,0)"><rect id="rect97" width="21" height="21" x="138.686" y="38.965" style="fill:#fff"/><polygon id="polygon99" points="150.79 42.476 150.79 46.444 154.644 46.444 149.198 51.939 143.728 46.468 147.479 46.468 147.504 42.477" style="fill:#006468"/><rect id="rect101" width="1" height="1" x="143.652" y="55.049" style="fill:#006468"/><rect id="rect103" width="1" height="1" x="145.66" y="55.049" style="fill:#006468"/><rect id="rect105" width="1" height="1" x="147.659" y="55.049" style="fill:#006468"/><rect id="rect107" width="1" height="1" x="149.666" y="55.049" style="fill:#006468"/><rect id="rect109" width="1" height="1" x="151.666" y="55.049" style="fill:#006468"/><rect id="rect111" width="1" height="1" x="153.673" y="55.049" style="fill:#006468"/></g><g id="g113" transform="translate(-0.54399872,0)"><rect id="rect115" width="21" height="21" x="105.544" y="71.977" style="fill:#4db7bb"/><polygon id="polygon117" points="114.44 84.95 114.44 80.983 110.586 80.983 116.032 75.488 121.502 80.959 117.751 80.958 117.726 84.95" style="fill:#006468"/><rect id="rect119" width="1" height="1" x="110.511" y="88.061" style="fill:#006468"/><rect id="rect121" width="1" height="1" x="112.518" y="88.061" style="fill:#006468"/><rect id="rect123" width="1" height="1" x="114.517" y="88.061" style="fill:#006468"/><rect id="rect125" width="1" height="1" x="116.525" y="88.061" style="fill:#006468"/><rect id="rect127" width="1" height="1" x="118.524" y="88.061" style="fill:#006468"/><rect id="rect129" width="1" height="1" x="120.531" y="88.061" style="fill:#006468"/></g><g id="g131" transform="translate(-0.68600464,0)"><rect id="rect133" width="21" height="21" x="138.686" y="71.977" style="fill:#4db7bb"/><polygon id="polygon135" points="150.79 75.488 150.79 79.455 154.644 79.455 149.198 84.95 143.728 79.48 147.479 79.48 147.504 75.488" style="fill:#006468"/><rect id="rect137" width="1" height="1" x="143.652" y="88.061" style="fill:#006468"/><rect id="rect139" width="1" height="1" x="145.66" y="88.061" style="fill:#006468"/><rect id="rect141" width="1" height="1" x="147.659" y="88.061" style="fill:#006468"/><rect id="rect143" width="1" height="1" x="149.666" y="88.061" style="fill:#006468"/><rect id="rect145" width="1" height="1" x="151.666" y="88.061" style="fill:#006468"/><rect id="rect147" width="1" height="1" x="153.673" y="88.061" style="fill:#006468"/></g><g id="g149" transform="translate(-0.40299988,0)"><path id="path151" d="M 87.445,22.097" style="fill:#655100"/><rect id="rect153" width="21" height="21" x="72.403" y="6.109" style="fill:#fc0"/><polygon id="polygon155" points="83.44 10.094 84.441 10.094 88.421 14.079 88.421 15.057 87.445 15.057 83.44 15.057" style="fill:#655100"/><polygon id="polygon157" points="78.404 11.093 78.404 22.097 87.445 22.097 87.445 14.87 88.421 14.87 88.421 23.134 77.399 23.134 77.399 10.094 83.562 10.094 83.568 11.093" style="fill:#655100"/><rect id="rect159" width=".995" height=".996" x="79.399" y="12.111" style="fill:#655100"/><rect id="rect161" width=".995" height=".996" x="81.395" y="12.111" style="fill:#655100"/><rect id="rect163" width=".995" height=".996" x="79.399" y="14.103" style="fill:#655100"/><rect id="rect165" width=".995" height=".996" x="81.395" y="14.103" style="fill:#655100"/><rect id="rect167" width=".995" height=".996" x="79.399" y="16.116" style="fill:#655100"/><rect id="rect169" width=".995" height=".996" x="81.395" y="16.116" style="fill:#655100"/><rect id="rect171" width=".995" height=".996" x="83.403" y="16.116" style="fill:#655100"/><rect id="rect173" width=".995" height=".996" x="85.4" y="16.116" style="fill:#655100"/><rect id="rect175" width=".995" height=".996" x="79.399" y="18.118" style="fill:#655100"/><rect id="rect177" width=".995" height=".996" x="81.395" y="18.118" style="fill:#655100"/><rect id="rect179" width=".995" height=".996" x="79.399" y="20.132" style="fill:#655100"/><rect id="rect181" width=".995" height=".996" x="81.395" y="20.132" style="fill:#655100"/><rect id="rect183" width=".995" height=".996" x="83.403" y="18.118" style="fill:#655100"/><rect id="rect185" width=".995" height=".996" x="85.4" y="18.118" style="fill:#655100"/><rect id="rect187" width=".995" height=".996" x="83.403" y="20.132" style="fill:#655100"/><rect id="rect189" width=".995" height=".996" x="85.4" y="20.132" style="fill:#655100"/></g><g id="g191" transform="translate(-0.40299988,0)"><path id="path193" d="M 87.445,54.953" style="fill:#006468"/><rect id="rect195" width="21" height="21" x="72.403" y="38.965" style="fill:#fff"/><polygon id="polygon197" points="83.44 42.95 84.441 42.95 88.421 46.935 88.421 47.912 87.445 47.912 83.44 47.912" style="fill:#006468"/><polygon id="polygon199" points="78.404 43.949 78.404 54.953 87.445 54.953 87.445 47.726 88.421 47.726 88.421 55.99 77.399 55.99 77.399 42.95 83.586 42.95 83.599 43.951" style="fill:#006468"/><rect id="rect201" width=".995" height=".996" x="79.399" y="44.967" style="fill:#006468"/><rect id="rect203" width=".995" height=".996" x="81.395" y="44.967" style="fill:#006468"/><rect id="rect205" width=".995" height=".996" x="79.399" y="46.959" style="fill:#006468"/><rect id="rect207" width=".995" height=".996" x="81.395" y="46.959" style="fill:#006468"/><rect id="rect209" width=".995" height=".996" x="79.399" y="48.972" style="fill:#006468"/><rect id="rect211" width=".995" height=".996" x="81.395" y="48.972" style="fill:#006468"/><rect id="rect213" width=".995" height=".996" x="83.403" y="48.972" style="fill:#006468"/><rect id="rect215" width=".995" height=".996" x="85.4" y="48.972" style="fill:#006468"/><rect id="rect217" width=".995" height=".996" x="79.399" y="50.974" style="fill:#006468"/><rect id="rect219" width=".995" height=".996" x="81.395" y="50.974" style="fill:#006468"/><rect id="rect221" width=".995" height=".996" x="79.399" y="52.987" style="fill:#006468"/><rect id="rect223" width=".995" height=".996" x="81.395" y="52.987" style="fill:#006468"/><rect id="rect225" width=".995" height=".996" x="83.403" y="50.974" style="fill:#006468"/><rect id="rect227" width=".995" height=".996" x="85.4" y="50.974" style="fill:#006468"/><rect id="rect229" width=".995" height=".996" x="83.403" y="52.987" style="fill:#006468"/><rect id="rect231" width=".995" height=".996" x="85.4" y="52.987" style="fill:#006468"/></g><g id="g233" transform="translate(-0.40299988,0)"><path id="path235" d="M 87.445,87.965" style="fill:#006468"/><rect id="rect237" width="21" height="21" x="72.403" y="71.977" style="fill:#4db7bb"/><polygon id="polygon239" points="83.44 75.961 84.441 75.961 88.421 79.946 88.421 80.924 87.445 80.924 83.44 80.924" style="fill:#006468"/><polygon id="polygon241" points="78.404 76.961 78.404 87.965 87.445 87.965 87.445 80.738 88.421 80.738 88.421 89.002 77.399 89.002 77.399 75.961 83.586 75.961 83.599 76.963" style="fill:#006468"/><rect id="rect243" width=".995" height=".996" x="79.399" y="77.978" style="fill:#006468"/><rect id="rect245" width=".995" height=".996" x="81.395" y="77.978" style="fill:#006468"/><rect id="rect247" width=".995" height=".996" x="79.399" y="79.97" style="fill:#006468"/><rect id="rect249" width=".995" height=".996" x="81.395" y="79.97" style="fill:#006468"/><rect id="rect251" width=".995" height=".996" x="79.399" y="81.984" style="fill:#006468"/><rect id="rect253" width=".995" height=".996" x="81.395" y="81.984" style="fill:#006468"/><rect id="rect255" width=".995" height=".996" x="83.403" y="81.984" style="fill:#006468"/><rect id="rect257" width=".995" height=".996" x="85.4" y="81.984" style="fill:#006468"/><rect id="rect259" width=".995" height=".996" x="79.399" y="83.986" style="fill:#006468"/><rect id="rect261" width=".995" height=".996" x="81.395" y="83.986" style="fill:#006468"/><rect id="rect263" width=".995" height=".996" x="79.399" y="85.999" style="fill:#006468"/><rect id="rect265" width=".995" height=".996" x="81.395" y="85.999" style="fill:#006468"/><rect id="rect267" width=".995" height=".996" x="83.403" y="83.986" style="fill:#006468"/><rect id="rect269" width=".995" height=".996" x="85.4" y="83.986" style="fill:#006468"/><rect id="rect271" width=".995" height=".996" x="83.403" y="85.999" style="fill:#006468"/><rect id="rect273" width=".995" height=".996" x="85.4" y="85.999" style="fill:#006468"/></g><g id="g275" transform="translate(-0.82800293,0)"><rect id="rect277" width="21" height="21" x="171.828" y="6.109" style="fill:#fc0"/><rect id="rect279" width=".999" height=".998" x="187.819" y="16.101" style="fill:#655100"/><rect id="rect281" width=".999" height=".998" x="189.825" y="16.101" style="fill:#655100"/><rect id="rect283" width=".999" height=".998" x="174.833" y="16.101" style="fill:#655100"/><circle id="circle285" cx="181.803" cy="16.101" r="4.09" stroke-miterlimit="10" style="fill:none;stroke:#655100;stroke-width:1.95439994;stroke-miterlimit:10"/><rect id="rect287" width="2.68" height="4.423" x="175.895" y="18.428" transform="matrix(0.6915,0.7224,-0.7224,0.6915,69.5827,-121.6599)" style="fill:#655100"/><rect id="rect289" width="2.028" height="1.996" x="180.789" y="15.103" style="fill:#655100"/></g><g id="g291" transform="translate(-0.82800293,0)"><rect id="rect293" width="21" height="21" x="171.828" y="38.965" style="fill:#fff"/><rect id="rect295" width=".999" height=".998" x="187.819" y="48.957" style="fill:#006468"/><rect id="rect297" width=".999" height=".998" x="189.825" y="48.957" style="fill:#006468"/><rect id="rect299" width=".999" height=".998" x="174.833" y="48.957" style="fill:#006468"/><circle id="circle301" cx="181.803" cy="48.957" r="4.09" stroke-miterlimit="10" style="fill:none;stroke:#006468;stroke-width:1.95439994;stroke-miterlimit:10"/><rect id="rect303" width="2.68" height="4.423" x="175.895" y="51.284" transform="matrix(0.6915,0.7224,-0.7224,0.6915,93.3163,-111.5246)" style="fill:#006468"/><rect id="rect305" width="2.028" height="1.996" x="180.789" y="47.959" style="fill:#006468"/></g><g id="g307" transform="translate(-0.82800293,0)"><rect id="rect309" width="21" height="21" x="171.828" y="71.977" style="fill:#4db7bb"/><rect id="rect311" width=".999" height=".998" x="187.819" y="81.969" style="fill:#006468"/><rect id="rect313" width=".999" height=".998" x="189.825" y="81.969" style="fill:#006468"/><rect id="rect315" width=".999" height=".998" x="174.833" y="81.969" style="fill:#006468"/><circle id="circle317" cx="181.803" cy="81.969" r="4.09" stroke-miterlimit="10" style="fill:none;stroke:#006468;stroke-width:1.95439994;stroke-miterlimit:10"/><rect id="rect319" width="2.68" height="4.423" x="175.895" y="84.296" transform="matrix(0.6915,0.7224,-0.7224,0.6915,117.1625,-101.3412)" style="fill:#006468"/><rect id="rect321" width="2.028" height="1.996" x="180.789" y="80.97" style="fill:#006468"/></g></svg>